<svg width="512" height="512" viewBox="0 0 512 512" fill="none" xmlns="http://www.w3.org/2000/svg">
<rect width="512" height="512" fill="black"/>
<path d="M234.129 87.9593L254.962 65.8083C256.519 64.1535 258.995 63.7559 260.991 64.8403L351.831 114.188C355.267 116.055 355.327 120.966 351.937 122.916L317.028 142.993C315.339 143.964 313.24 143.866 311.65 142.742L234.129 87.9593L143.759 184.046L294.51 234.881L406.13 237.777C408.84 237.847 411 240.064 411 242.775V274.163V322.247C411 323.862 410.219 325.378 408.904 326.317L243.612 444.254C240.952 446.152 237.217 445.031 236.042 441.983L223.618 409.756L194.055 431.149C191.524 432.98 187.951 432.068 186.609 429.247L127.258 304.564C125.585 301.048 128.395 297.053 132.269 297.44L179.179 302.12C181.057 302.307 182.669 303.536 183.348 305.296L223.618 409.756L411 274.163L294.51 234.881L148.629 231.097C145.919 231.027 143.759 228.81 143.759 226.099V184.046L106.85 163.793C103.926 162.189 103.363 158.226 105.724 155.87L195.831 65.9728C197.553 64.2548 200.261 64.0253 202.248 65.4291L234.129 87.9593Z" fill="white"/>
<path d="M233.5 83.2887C233.809 83.11 234.191 83.11 234.5 83.2887L237.83 85.2113C238.14 85.39 238.33 85.7201 238.33 86.0774V89.9226C238.33 90.2799 238.14 90.61 237.83 90.7887L234.5 92.7113C234.191 92.89 233.809 92.89 233.5 92.7113L230.17 90.7887C229.86 90.61 229.67 90.2799 229.67 89.9226V86.0774C229.67 85.7201 229.86 85.39 230.17 85.2113L233.5 83.2887Z" fill="white"/>
<path d="M142.5 178.289C142.809 178.11 143.191 178.11 143.5 178.289L146.83 180.211C147.14 180.39 147.33 180.72 147.33 181.077V184.923C147.33 185.28 147.14 185.61 146.83 185.789L143.5 187.711C143.191 187.89 142.809 187.89 142.5 187.711L139.17 185.789C138.86 185.61 138.67 185.28 138.67 184.923V181.077C138.67 180.72 138.86 180.39 139.17 180.211L142.5 178.289Z" fill="white"/>
<path d="M223.5 404.289C223.809 404.11 224.191 404.11 224.5 404.289L227.83 406.211C228.14 406.39 228.33 406.72 228.33 407.077V410.923C228.33 411.28 228.14 411.61 227.83 411.789L224.5 413.711C224.191 413.89 223.809 413.89 223.5 413.711L220.17 411.789C219.86 411.61 219.67 411.28 219.67 410.923V407.077C219.67 406.72 219.86 406.39 220.17 406.211L223.5 404.289Z" fill="white"/>
</svg>
